<?xml version="1.0" encoding="UTF-8"?>
<svg height="16px" viewBox="0 0 16 16" width="16px" xmlns="http://www.w3.org/2000/svg">
  <!-- LEENIUM touchpad enabled icon -->
  <path fill="#33b8a8" d="M3.0 1.5 A1.5 1.5 0 0 0 1.5 3.0 L1.5 13.0 A1.5 1.5 0 0 0 3.0 14.5 L13.0 14.5 A1.5 1.5 0 0 0 14.5 13.0 L14.5 3.0 A1.5 1.5 0 0 0 13.0 1.5 Z M3.2 3.0 L12.8 3.0 A0.8 0.8 0 0 1 13.6 3.8 L13.6 8.0 L2.4 8.0 L2.4 3.8 A0.8 0.8 0 0 1 3.2 3.0 Z M2.4 9.2 L7.0 9.2 L7.0 11.6 L3.2 11.6 A0.8 0.8 0 0 1 2.4 10.8 Z M8.2 9.2 L13.6 9.2 L13.6 10.8 A0.8 0.8 0 0 1 12.8 11.6 L8.2 11.6 Z"/>
  <circle cx="11.0" cy="6.0" r="1.4" fill="#0b1113"/>
  <circle cx="11.0" cy="6.0" r="0.9" fill="#33b8a8"/>
</svg>
